<svg width="24" height="23" viewBox="0 0 24 23" fill="none" xmlns="http://www.w3.org/2000/svg">
<path d="M20.8999 3.291C20.5477 2.32722 19.9081 1.4948 19.0675 0.906235C18.227 0.317672 17.226 0.00134394 16.1999 0H7.7999C6.77378 0.00134394 5.7728 0.317672 4.93226 0.906235C4.09171 1.4948 3.45211 2.32722 3.0999 3.291L0.399898 10.718C0.134347 11.4495 -0.00103154 12.2218 -0.000102058 13V14C0.00168227 14.7728 0.18333 15.5346 0.530463 16.225C0.877596 16.9155 1.38068 17.5156 1.9999 17.978C1.9999 17.986 1.9999 17.992 1.9999 18V20C1.9999 20.7956 2.31597 21.5587 2.87858 22.1213C3.44119 22.6839 4.20425 23 4.9999 23C5.79555 23 6.55861 22.6839 7.12122 22.1213C7.68383 21.5587 7.9999 20.7956 7.9999 20V19H15.9999V20C15.9999 20.7956 16.316 21.5587 16.8786 22.1213C17.4412 22.6839 18.2043 23 18.9999 23C19.7955 23 20.5586 22.6839 21.1212 22.1213C21.6838 21.5587 21.9999 20.7956 21.9999 20V18C21.9999 17.992 21.9999 17.986 21.9999 17.978C22.6191 17.5156 23.1222 16.9155 23.4693 16.225C23.8165 15.5346 23.9981 14.7728 23.9999 14V13C24.0009 12.2221 23.8655 11.4501 23.5999 10.719L20.8999 3.291ZM4.9819 3.975C5.19334 3.39717 5.57684 2.89805 6.08071 2.54491C6.58458 2.19177 7.1846 2.00159 7.7999 2H16.1999C16.8155 2.00118 17.416 2.19117 17.9203 2.54434C18.4245 2.8975 18.8083 3.39685 19.0199 3.975L21.2079 10H2.7909L4.9819 3.975ZM5.9999 20C5.9999 20.2652 5.89454 20.5196 5.70701 20.7071C5.51947 20.8946 5.26512 21 4.9999 21C4.73468 21 4.48033 20.8946 4.29279 20.7071C4.10526 20.5196 3.9999 20.2652 3.9999 20V18.9C4.32903 18.9668 4.66405 19.0003 4.9999 19H5.9999V20ZM19.9999 20C19.9999 20.2652 19.8945 20.5196 19.707 20.7071C19.5195 20.8946 19.2651 21 18.9999 21C18.7347 21 18.4803 20.8946 18.2928 20.7071C18.1053 20.5196 17.9999 20.2652 17.9999 20V19H18.9999C19.3357 19.0003 19.6708 18.9668 19.9999 18.9V20ZM21.9999 14C21.9999 14.7956 21.6838 15.5587 21.1212 16.1213C20.5586 16.6839 19.7955 17 18.9999 17H4.9999C4.20425 17 3.44119 16.6839 2.87858 16.1213C2.31597 15.5587 1.9999 14.7956 1.9999 14V13C2.00397 12.6633 2.04454 12.328 2.1209 12H3.9999V13C3.9999 13.2652 4.10526 13.5196 4.29279 13.7071C4.48033 13.8946 4.73468 14 4.9999 14C5.26512 14 5.51947 13.8946 5.70701 13.7071C5.89454 13.5196 5.9999 13.2652 5.9999 13V12H17.9999V13C17.9999 13.2652 18.1053 13.5196 18.2928 13.7071C18.4803 13.8946 18.7347 14 18.9999 14C19.2651 14 19.5195 13.8946 19.707 13.7071C19.8945 13.5196 19.9999 13.2652 19.9999 13V12H21.8789C21.9553 12.328 21.9959 12.6633 21.9999 13V14Z" fill="currentColor"/>
</svg>
