<svg width="24" height="20" viewBox="0 0 24 20" fill="none" xmlns="http://www.w3.org/2000/svg">
<path d="M15.75 3.53561e-09C16.9106 -3.98225e-05 18.0464 0.33638 19.0195 0.96875C19.9927 1.60115 20.762 2.50291 21.2334 3.56348L23.0518 7.6543C23.6788 9.0602 24.0022 10.5827 24 12.1221V13C23.9979 13.6309 23.7967 14.2452 23.4248 14.7549C23.0529 15.2645 22.5289 15.6434 21.9287 15.8379C21.974 16.0557 21.998 16.2775 22 16.5C22 17.4283 21.631 18.3182 20.9746 18.9746C20.3182 19.631 19.4283 20 18.5 20C17.5717 20 16.6818 19.631 16.0254 18.9746C15.369 18.3182 15 17.4283 15 16.5C15.0016 16.3326 15.0153 16.1655 15.041 16H8.95898C8.98471 16.1655 8.99843 16.3326 9 16.5C9 17.4283 8.63099 18.3182 7.97461 18.9746C7.31823 19.631 6.42826 20 5.5 20C4.57174 20 3.68177 19.631 3.02539 18.9746C2.36901 18.3182 2 17.4283 2 16.5C2.00195 16.2775 2.02602 16.0557 2.07129 15.8379C1.47109 15.6434 0.947112 15.2645 0.575195 14.7549C0.203285 14.2452 0.00214558 13.6309 0 13V5C0.00158786 3.67441 0.528482 2.40316 1.46582 1.46582C2.40316 0.528482 3.67441 0.00158786 5 3.53561e-09H15.75ZM4.09277 16C4.03191 16.1597 4.00061 16.3291 4 16.5C4 16.8978 4.15815 17.2792 4.43945 17.5605C4.72076 17.8419 5.10218 18 5.5 18C5.89782 18 6.27924 17.8419 6.56055 17.5605C6.84185 17.2792 7 16.8978 7 16.5C6.99939 16.3291 6.96809 16.1597 6.90723 16H4.09277ZM17.0928 16C17.0319 16.1597 17.0006 16.3291 17 16.5C17 16.8978 17.1581 17.2792 17.4395 17.5605C17.7208 17.8419 18.1022 18 18.5 18C18.8978 18 19.2792 17.8419 19.5605 17.5605C19.8419 17.2792 20 16.8978 20 16.5C19.9994 16.3291 19.9681 16.1597 19.9072 16H17.0928ZM5 2C4.20435 2 3.44152 2.3163 2.87891 2.87891C2.3163 3.44152 2 4.20435 2 5V13C2 13.2652 2.10543 13.5195 2.29297 13.707C2.48051 13.8946 2.73478 14 3 14H21C21.2652 14 21.5195 13.8946 21.707 13.707C21.8946 13.5195 22 13.2652 22 13V12.1221C21.9979 11.0556 21.8042 9.99814 21.4287 9H17C16.2044 9 15.4415 8.6837 14.8789 8.12109C14.3163 7.55848 14 6.79565 14 6V2H5ZM16 6C16 6.26522 16.1054 6.5195 16.293 6.70703C16.4805 6.89457 16.7348 7 17 7H20.5732L19.4062 4.37598C19.1079 3.70951 18.6326 3.13734 18.0322 2.72168C17.4318 2.30601 16.7289 2.06227 16 2.01758V6Z" fill="currentColor"/>
</svg>
