<svg width="206" height="30" viewBox="0 0 206 30" fill="none" xmlns="http://www.w3.org/2000/svg">
<path d="M125.06 0.0256119H120.996V29.9972H125.06V0.0256119Z" fill="white"/>
<path d="M92.0545 0.0283851H81.0676V29.9917H92.0545C96.3792 30.0827 100.583 28.5734 103.842 25.7593C105.35 24.3973 106.55 22.7354 107.364 20.8825C108.178 19.0296 108.587 17.0275 108.565 15.0073V14.924C108.586 12.9127 108.176 10.9199 107.362 9.07683C106.548 7.23378 105.348 5.5824 103.842 4.23157C100.575 1.43316 96.3743 -0.0647768 92.0545 0.0283851ZM104.502 15.0946C104.502 21.5021 99.5015 25.9772 92.3433 25.9772H85.1318V4.04429H92.3433C99.5015 4.04429 104.502 8.55403 104.502 15.0031V15.0946Z" fill="white"/>
<path d="M67.5825 9.98561C67.638 8.71939 67.4264 7.45561 66.961 6.27481C66.4956 5.09401 65.7868 4.02208 64.8796 3.12734C63.6955 2.04227 62.3001 1.20759 60.7789 0.674273C59.2576 0.140957 57.6425 -0.0797799 56.0321 0.0255939H42.4993V29.9986H46.5649V19.8083H55.1418L62.9015 30H67.9919L59.743 19.1688C62.7992 18.3365 67.5825 16.0601 67.5825 9.98561ZM46.5649 15.7882V4.04844H56.3783C60.7159 4.04844 63.5169 6.44549 63.5169 10.1521V10.2367C63.5169 13.6575 60.7047 15.7854 56.1765 15.7854L46.5649 15.7882Z" fill="white"/>
<path d="M150.787 0.0256119L137.3 29.9972H141.75L146.336 19.807H159.528L164.113 29.9972H168.562L155.074 0.0256119H150.787ZM148.143 15.7883L152.93 5.1485L157.718 15.7883H148.143Z" fill="white"/>
<path d="M17.7694 0.0256119H13.4823L0 29.9972H4.4497L9.03399 19.807H22.2275L26.8132 29.9972H31.2629L17.8283 0.140759L17.7694 0.0256119ZM10.8383 15.7883L15.6258 5.1485L20.4134 15.7883H10.8383Z" fill="white"/>
<path d="M201.934 0.0256119V22.8116L182.952 0.0256119H179.607V29.9972H183.673V7.21125L202.562 29.8863L202.582 29.9986H206V0.0256119H201.934Z" fill="white"/>
</svg>
